<svg id="Слой_1" data-name="Слой 1" xmlns="http://www.w3.org/2000/svg" viewBox="0 0 30 30"><defs><style>.cls-1{fill:#7fb1de;}.cls-2{fill:#fff;}</style></defs><title>file-h</title><circle class="cls-1" cx="155.86" cy="106.2" r="15" transform="translate(-169.64 -23.47) rotate(-22.5)"/><path class="cls-2" d="M149.5,111.86a3,3,0,0,1,0-4.17l6.84-6.85a4,4,0,0,1,5.59,5.59l-4.25,4.25a.51.51,0,0,1-.72,0,.5.5,0,0,1,0-.71l4.26-4.26a2.94,2.94,0,0,0-4.16-4.15l-6.84,6.84a1.93,1.93,0,1,0,2.73,2.74l6.28-6.28a1,1,0,0,0,0-1.44,1,1,0,0,0-1.44,0l-3.9,3.9a.51.51,0,1,1-.72-.72l3.9-3.89a2,2,0,0,1,2.87,2.87l-6.27,6.28A3,3,0,0,1,149.5,111.86Z" transform="translate(-140.86 -91.2)"/></svg>