<svg id="Слой_1" data-name="Слой 1" xmlns="http://www.w3.org/2000/svg" viewBox="0 0 30 30"><defs><style>.cls-1{fill:#6698d0;}.cls-2{fill:#fff;}</style></defs><title>file</title><circle class="cls-1" cx="155.47" cy="105.99" r="15" transform="translate(-169.19 -23.43) rotate(-22.5)"/><path class="cls-2" d="M149.1,111.65a3,3,0,0,1,0-4.17l6.85-6.85a4,4,0,1,1,5.59,5.59l-4.26,4.25a.5.5,0,0,1-.71-.71l4.25-4.26a2.93,2.93,0,1,0-4.15-4.15l-6.85,6.84a1.94,1.94,0,0,0,2.74,2.74l6.27-6.28a1,1,0,0,0,0-1.44,1,1,0,0,0-1.44,0l-3.9,3.9a.51.51,0,0,1-.72,0,.51.51,0,0,1,0-.71l3.9-3.9a2,2,0,1,1,2.88,2.87l-6.28,6.28A3,3,0,0,1,149.1,111.65Z" transform="translate(-140.47 -90.99)"/></svg>