<svg id="Слой_1" data-name="Слой 1" xmlns="http://www.w3.org/2000/svg" viewBox="0 0 17 19.02"><defs><style>.cls-1{fill:none;stroke:#5d5d5d;stroke-miterlimit:10;stroke-width:0.5px;}</style></defs><title>icon-2-1</title><path class="cls-1" d="M163.14,101.89a7,7,0,0,0-1.08-2.27,5.89,5.89,0,0,0-4.27-2,4.9,4.9,0,0,0-2.73.47,2.56,2.56,0,0,0-1.38,2.29,2.64,2.64,0,0,0,2.33,2.19,5.92,5.92,0,0,0,3.33-.71,50.24,50.24,0,0,1-1.3,5.81,3.44,3.44,0,0,0-3.65-.61,1,1,0,0,1-.37.11.81.81,0,0,1-.54-.31,6.72,6.72,0,0,0-5.92-1.64l.22,10.85a3.84,3.84,0,0,0,3.07-3.33,16.23,16.23,0,0,0,6.58,1.47c2.28,0,4.85-.65,5.95-2.65a6.63,6.63,0,0,0,.66-3A20,20,0,0,0,163.14,101.89Z" transform="translate(-147.31 -97.35)"/><path class="cls-1" d="M158,107.67a2.08,2.08,0,0,1-.26,1.9" transform="translate(-147.31 -97.35)"/><path class="cls-1" d="M162.33,105.82s.51,4.58-1.06,5.51" transform="translate(-147.31 -97.35)"/><path class="cls-1" d="M153.72,100.66a2.4,2.4,0,0,1,1.75-1.1" transform="translate(-147.31 -97.35)"/><path class="cls-1" d="M154.36,101.76a1.68,1.68,0,0,1,1.45-.92" transform="translate(-147.31 -97.35)"/></svg>