<svg id="Слой_1" data-name="Слой 1" xmlns="http://www.w3.org/2000/svg" viewBox="0 0 35.5 35.5"><defs><style>.cls-1{fill:#6698cf;}.cls-2{fill:#fff;}</style></defs><title>icon-social-vk</title><path class="cls-1" d="M166.89,81.25H144.71a6.66,6.66,0,0,0-6.66,6.66v22.18a6.66,6.66,0,0,0,6.66,6.66h22.18a6.66,6.66,0,0,0,6.66-6.66V87.91A6.66,6.66,0,0,0,166.89,81.25Z" transform="translate(-138.05 -81.25)"/><path class="cls-2" d="M166.64,96.73l-.31-.24c-.41-.32-2.48,0-3-.48s-.46-1-.58-1.9a5.37,5.37,0,0,0-.63-2.38,7.77,7.77,0,0,0-5.43-3.83h-4.92a7,7,0,0,0-7,7v8.17a7,7,0,0,0,7,7h8.08a7,7,0,0,0,7-7l.05-5.66-.07-.31Zm-14.81-3.1h3.9a1.34,1.34,0,1,1,0,2.68h-3.9a1.34,1.34,0,0,1,0-2.68Zm7.92,10.69h-7.92a1.33,1.33,0,1,1,0-2.66h7.92a1.33,1.33,0,1,1,0,2.66Z" transform="translate(-138.05 -81.25)"/></svg>