<svg id="Слой_1" data-name="Слой 1" xmlns="http://www.w3.org/2000/svg" viewBox="0 0 17 19.02"><defs><style>.cls-1{fill:none;stroke:#6698d0;stroke-miterlimit:10;stroke-width:0.5px;}</style></defs><title>icon-2</title><path class="cls-1" d="M163,94.7a7.09,7.09,0,0,0-1.08-2.27,5.94,5.94,0,0,0-4.27-2,4.93,4.93,0,0,0-2.74.47,2.55,2.55,0,0,0-1.37,2.29,2.65,2.65,0,0,0,2.33,2.2,6,6,0,0,0,3.32-.72,50.21,50.21,0,0,1-1.29,5.81,3.44,3.44,0,0,0-3.65-.61,1,1,0,0,1-.38.11.86.86,0,0,1-.54-.31A6.7,6.7,0,0,0,147.43,98l.22,10.85a3.84,3.84,0,0,0,3.07-3.33,16.19,16.19,0,0,0,6.57,1.47c2.29,0,4.86-.65,6-2.65a6.76,6.76,0,0,0,.66-3A20.22,20.22,0,0,0,163,94.7Z" transform="translate(-147.17 -90.16)"/><path class="cls-1" d="M157.91,100.48a2.08,2.08,0,0,1-.26,1.9" transform="translate(-147.17 -90.16)"/><path class="cls-1" d="M162.2,98.63s.51,4.58-1.06,5.51" transform="translate(-147.17 -90.16)"/><path class="cls-1" d="M153.59,93.47a2.37,2.37,0,0,1,1.75-1.1" transform="translate(-147.17 -90.16)"/><path class="cls-1" d="M154.22,94.57a1.7,1.7,0,0,1,1.45-.92" transform="translate(-147.17 -90.16)"/></svg>