<svg id="Слой_1" data-name="Слой 1" xmlns="http://www.w3.org/2000/svg" viewBox="0 0 35.5 35.5"><defs><style>.cls-1{fill:#6698cf;}.cls-2{fill:#fff;}</style></defs><title>icon-social-inst</title><path class="cls-1" d="M166.91,81.25H144.72a6.66,6.66,0,0,0-6.65,6.66v22.18a6.66,6.66,0,0,0,6.65,6.66h22.19a6.66,6.66,0,0,0,6.66-6.66V87.91A6.66,6.66,0,0,0,166.91,81.25Z" transform="translate(-138.07 -81.25)"/><path class="cls-2" d="M155.82,92.31A6.69,6.69,0,1,0,162.5,99,6.68,6.68,0,0,0,155.82,92.31Zm0,11A4.36,4.36,0,1,1,160.16,99,4.36,4.36,0,0,1,155.81,103.35Z" transform="translate(-138.07 -81.25)"/><path class="cls-2" d="M168.54,91.76a6.7,6.7,0,0,0-5-5.39,12.91,12.91,0,0,0-3.39-.37c-2.88,0-5.77,0-8.65,0a14,14,0,0,0-3,.27,6.71,6.71,0,0,0-5.3,4.9,12.57,12.57,0,0,0-.4,3.45q0,4.38,0,8.77a12.9,12.9,0,0,0,.27,2.9,6.71,6.71,0,0,0,5.32,5.4A16.3,16.3,0,0,0,152,112c1.26,0,2.52,0,3.78,0s2.53,0,3.8,0a16.58,16.58,0,0,0,3.44-.27,6.72,6.72,0,0,0,5.46-5.36,16,16,0,0,0,.31-3.65c0-2.49,0-5,0-7.46A16.43,16.43,0,0,0,168.54,91.76Zm-2.36,14.34a4.36,4.36,0,0,1-3.68,3.35,10.73,10.73,0,0,1-2,.19q-4.66,0-9.31,0a9.25,9.25,0,0,1-2.46-.29,4.38,4.38,0,0,1-3.35-3.64,19.94,19.94,0,0,1-.23-3.45c0-1.09,0-2.18,0-3.28h0c0-1.81.07-3.63.12-5.45a6.62,6.62,0,0,1,.37-2.06,4.27,4.27,0,0,1,3.31-2.89,13.24,13.24,0,0,1,2.27-.24c1.92,0,3.84,0,5.76,0,1.46,0,2.91,0,4.36.08a6.37,6.37,0,0,1,2.47.53,4.24,4.24,0,0,1,2.48,3.2,12.75,12.75,0,0,1,.24,2.31c0,3,0,6.11,0,9.16A9.28,9.28,0,0,1,166.18,106.1Z" transform="translate(-138.07 -81.25)"/><path class="cls-2" d="M162.71,90.49A1.56,1.56,0,1,0,164.32,92,1.58,1.58,0,0,0,162.71,90.49Z" transform="translate(-138.07 -81.25)"/></svg>