<svg xmlns="http://www.w3.org/2000/svg" xmlns:xlink="http://www.w3.org/1999/xlink" width="32" height="31" viewBox="0 0 32 31"><defs><path id="jqz7a" d="M66.968 154.369v20.745c0 .589-.497 1.085-1.085 1.085h-17.94a1.094 1.094 0 0 1-1.086-1.085v-26.732c0-.597.488-1.085 1.086-1.085h11.952"/><path id="jqz7b" d="M66.968 154.369h-5.987a1.089 1.089 0 0 1-1.086-1.085v-5.987l7.073 7.072z"/><path id="jqz7c" d="M70.814 150.924h3.874v20.105c0 4.008-3.874 4.009-3.874 0v-20.105z"/><path id="jqz7d" d="M77.209 161.6l.014-7.51H70.79"/><path id="jqz7e" d="M72.686 176.199v-2.165"/><path id="jqz7f" d="M51.196 153.11h5.717"/><path id="jqz7g" d="M51.196 158.521H62.63"/><path id="jqz7h" d="M51.196 161.68H62.63"/><path id="jqz7i" d="M51.196 164.838H62.63"/><path id="jqz7j" d="M51.196 167.997h5.717"/></defs><g><g transform="translate(-46 -146)"><use fill="#fff" fill-opacity="0" stroke="#459ad4" stroke-miterlimit="50" xlink:href="#jqz7a"/></g><g transform="translate(-46 -146)"><use fill="#fff" fill-opacity="0" stroke="#459ad4" stroke-miterlimit="50" xlink:href="#jqz7b"/></g><g transform="translate(-46 -146)"><use fill="#fff" fill-opacity="0" stroke="#459ad4" stroke-miterlimit="50" xlink:href="#jqz7c"/></g><g transform="translate(-46 -146)"><use fill="#fff" fill-opacity="0" stroke="#459ad4" stroke-miterlimit="50" xlink:href="#jqz7d"/></g><g transform="translate(-46 -146)"><use fill="#fff" fill-opacity="0" stroke="#459ad4" stroke-miterlimit="50" xlink:href="#jqz7e"/></g><g transform="translate(-46 -146)"><use fill="#fff" fill-opacity="0" stroke="#459ad4" stroke-miterlimit="50" xlink:href="#jqz7f"/></g><g transform="translate(-46 -146)"><use fill="#fff" fill-opacity="0" stroke="#459ad4" stroke-miterlimit="50" xlink:href="#jqz7g"/></g><g transform="translate(-46 -146)"><use fill="#fff" fill-opacity="0" stroke="#459ad4" stroke-miterlimit="50" xlink:href="#jqz7h"/></g><g transform="translate(-46 -146)"><use fill="#fff" fill-opacity="0" stroke="#459ad4" stroke-miterlimit="50" xlink:href="#jqz7i"/></g><g transform="translate(-46 -146)"><use fill="#fff" fill-opacity="0" stroke="#459ad4" stroke-miterlimit="50" xlink:href="#jqz7j"/></g></g></svg>