<svg id="Слой_1" data-name="Слой 1" xmlns="http://www.w3.org/2000/svg" viewBox="0 0 24.17 27.06"><defs><style>.cls-1{fill:none;stroke:#5d5d5d;stroke-miterlimit:10;stroke-width:0.5px;}</style></defs><title>trainer-1</title><path class="cls-1" d="M157.68,117.73a13.4,13.4,0,0,0,7.3.48,1.75,1.75,0,0,0,2.28-1.33l-1.61-.58,1.61.58c1.48-5.69-1.61-7.42-1.61-7.42h0c-.25-3-3.84-3-3.84-3" transform="translate(-143.75 -92.14)"/><path class="cls-1" d="M159.19,99.8l.09-3c0-1.87-3.67-1.65-3.67-1.65s-3.67-.22-3.67,1.65l.09,3" transform="translate(-143.75 -92.14)"/><path class="cls-1" d="M165.64,109.42c-.25-3-3.83-3-3.83-3H159.5a2.63,2.63,0,0,1-1.57-2,5.1,5.1,0,0,0,2.21-3.3.91.91,0,0,0,.08-1.82h0a12.12,12.12,0,0,0,.64-1.86A3.79,3.79,0,0,0,158.74,93a7.93,7.93,0,0,0-6.1,0,3.78,3.78,0,0,0-2.12,4.43,12.8,12.8,0,0,0,.63,1.86h0a.91.91,0,0,0,.09,1.82,5.16,5.16,0,0,0,2,3.14,2.63,2.63,0,0,1-1.59,2.2h-1.95s-3.83-.71-3.83,3c-2.78,1.67-1.61,7.43-1.61,7.43.13,2.13,2.52,1.23,2.52,1.23s6.71,2.2,10.91-.39a13.31,13.31,0,0,0,7.3.48,1.75,1.75,0,0,0,2.28-1.32C168.73,111.16,165.64,109.42,165.64,109.42Z" transform="translate(-143.75 -92.14)"/><path class="cls-1" d="M158.17,104.27a4.71,4.71,0,0,1-2.42.73,6.39,6.39,0,0,1-2.53-.75" transform="translate(-143.75 -92.14)"/><path class="cls-1" d="M151.78,106.52s.49,2.47,3.76,2.47,3.76-2.47,3.76-2.47" transform="translate(-143.75 -92.14)"/><path class="cls-1" d="M161.36,106.72l-.11,4.2,1,1.36a4.28,4.28,0,0,0,.25,2.6s-3.72-.81-6.85-1.23a7.14,7.14,0,0,0-4.09,1" transform="translate(-143.75 -92.14)"/><path class="cls-1" d="M149.83,106.44s-3.83-.72-3.83,3h0c-2.78,1.67-1.61,7.42-1.61,7.42l1.61-.58-1.61.58c.13,2.14,2.52,1.24,2.52,1.24s6.71,2.19,10.91-.39a17.39,17.39,0,0,1-2.18-.88,10.5,10.5,0,0,1-1.48-.88,2.61,2.61,0,0,0-.3-.2" transform="translate(-143.75 -92.14)"/><path class="cls-1" d="M153.83,115.7a5.91,5.91,0,0,0-1.65-.71l-3.49-.4a4.31,4.31,0,0,0,.25-2.6l1-1.36-.1-4.21" transform="translate(-143.75 -92.14)"/></svg>