<svg id="Слой_1" data-name="Слой 1" xmlns="http://www.w3.org/2000/svg" viewBox="0 0 24.17 27.06"><defs><style>.cls-1{fill:none;stroke:#6698d0;stroke-miterlimit:10;stroke-width:0.5px;}</style></defs><title>trainer</title><path class="cls-1" d="M157.55,111.54a13.31,13.31,0,0,0,7.3.48,1.74,1.74,0,0,0,2.27-1.32l-1.6-.59,1.6.59c1.49-5.7-1.6-7.43-1.6-7.43h0c-.25-3-3.84-3-3.84-3" transform="translate(-143.61 -85.95)"/><path class="cls-1" d="M159.05,93.61l.09-3c0-1.86-3.66-1.65-3.66-1.65s-3.67-.21-3.67,1.65l.09,3" transform="translate(-143.61 -85.95)"/><path class="cls-1" d="M165.51,103.23c-.25-3-3.84-3-3.84-3h-2.3a2.65,2.65,0,0,1-1.58-2A5.13,5.13,0,0,0,160,94.92a.91.91,0,0,0,.08-1.82h0a13,13,0,0,0,.64-1.86,3.8,3.8,0,0,0-2.12-4.43,8,8,0,0,0-6.11,0,3.8,3.8,0,0,0-2.12,4.43A13,13,0,0,0,151,93.1h0a.91.91,0,0,0,.08,1.82,5.2,5.2,0,0,0,2,3.14,2.6,2.6,0,0,1-1.58,2.2h-1.95s-3.84-.71-3.84,3c-2.77,1.67-1.61,7.43-1.61,7.43.14,2.13,2.52,1.23,2.52,1.23s6.72,2.2,10.92-.39a13.31,13.31,0,0,0,7.3.48,1.74,1.74,0,0,0,2.28-1.32C168.6,105,165.51,103.23,165.51,103.23Z" transform="translate(-143.61 -85.95)"/><path class="cls-1" d="M158,98.08a4.77,4.77,0,0,1-2.42.73,6.47,6.47,0,0,1-2.54-.75" transform="translate(-143.61 -85.95)"/><path class="cls-1" d="M151.64,100.33s.49,2.47,3.76,2.47,3.76-2.47,3.76-2.47" transform="translate(-143.61 -85.95)"/><path class="cls-1" d="M161.23,100.53l-.11,4.2,1,1.36a4.38,4.38,0,0,0,.25,2.6s-3.71-.8-6.84-1.23a7.1,7.1,0,0,0-4.09,1" transform="translate(-143.61 -85.95)"/><path class="cls-1" d="M149.7,100.25s-3.84-.72-3.84,3h0c-2.77,1.67-1.61,7.42-1.61,7.42l1.61-.58-1.61.58c.14,2.14,2.52,1.24,2.52,1.24s6.72,2.19,10.92-.39a17.39,17.39,0,0,1-2.18-.88,10.22,10.22,0,0,1-1.49-.88l-.29-.2" transform="translate(-143.61 -85.95)"/><path class="cls-1" d="M153.7,109.51a6.37,6.37,0,0,0-1.65-.71l-3.49-.4a4.37,4.37,0,0,0,.24-2.6l1-1.36-.11-4.21" transform="translate(-143.61 -85.95)"/></svg>