<svg id="Слой_1" data-name="Слой 1" xmlns="http://www.w3.org/2000/svg" viewBox="0 0 35.5 35.5"><defs><style>.cls-1{fill:#6698cf;}.cls-2{fill:#fff;}</style></defs><title>icon-social-fb</title><path class="cls-1" d="M166.88,81.25H144.69A6.66,6.66,0,0,0,138,87.91v22.18a6.66,6.66,0,0,0,6.65,6.66h22.19a6.66,6.66,0,0,0,6.66-6.66V87.91A6.66,6.66,0,0,0,166.88,81.25Z" transform="translate(-138.04 -81.25)"/><path class="cls-2" d="M162.89,90.18h-3c-1.9,0-1.26,1.51-1.26,2.83v1.43h3.52l-.58,5.68h-2.94v11.36H153V100.12h-4.26V94.44H153V92.56c0-3.91,2.65-6,6.14-6a31,31,0,0,1,3.8.18Z" transform="translate(-138.04 -81.25)"/></svg>