<svg id="Слой_1" data-name="Слой 1" xmlns="http://www.w3.org/2000/svg" viewBox="0 0 22.77 22.77"><defs><style>.cls-1{fill:none;stroke:#6698d0;stroke-miterlimit:10;stroke-width:0.5px;}</style></defs><title>icon-1</title><rect class="cls-1" x="0.25" y="0.25" width="22.27" height="22.27" rx="2.01" ry="2.01"/><path class="cls-1" d="M155.2,91.62l-1,1.15a2.06,2.06,0,0,1-1.57.72h-3.95a2.06,2.06,0,0,0-2.06,2.06v10.79a2.06,2.06,0,0,0,2.06,2.06H162.1a2.06,2.06,0,0,0,2.06-2.06V93a2.06,2.06,0,0,0-2.06-2.06h-5.32A2.06,2.06,0,0,0,155.2,91.62Z" transform="translate(-144.02 -88.26)"/><line class="cls-1" x1="16.27" y1="12.31" x2="17.94" y2="11.39"/><line class="cls-1" x1="13.7" y1="10.04" x2="14.48" y2="11.66"/><line class="cls-1" x1="10.94" y1="13.72" x2="12.53" y2="10.04"/><line class="cls-1" x1="7.64" y1="11.85" x2="9.46" y2="14.13"/><line class="cls-1" x1="4.52" y1="15.18" x2="6.15" y2="12"/><path class="cls-1" d="M155.2,102.83a.86.86,0,1,1-.86-.86A.87.87,0,0,1,155.2,102.83Z" transform="translate(-144.02 -88.26)"/><path class="cls-1" d="M151.68,99.64a.86.86,0,1,1-.86-.85A.85.85,0,0,1,151.68,99.64Z" transform="translate(-144.02 -88.26)"/><path class="cls-1" d="M158,97.57a.87.87,0,0,1-.86.86.78.78,0,0,1-.37-.09l-.07,0a.85.85,0,0,1-.42-.73.86.86,0,0,1,1.72,0Z" transform="translate(-144.02 -88.26)"/><path class="cls-1" d="M160.11,100.57a.86.86,0,1,1-.86-.86A.86.86,0,0,1,160.11,100.57Z" transform="translate(-144.02 -88.26)"/><rect class="cls-1" x="2.79" y="2.63" width="1.38" height="1.38"/><rect class="cls-1" x="5.26" y="2.63" width="1.38" height="1.38"/><rect class="cls-1" x="7.73" y="2.63" width="1.38" height="1.38"/></svg>