<svg id="Слой_1" data-name="Слой 1" xmlns="http://www.w3.org/2000/svg" viewBox="0 0 24 24"><defs><style>.cls-1{fill:none;stroke:#5d5d5d;stroke-miterlimit:10;stroke-width:0.5px;}</style></defs><title>icon-3-1</title><path class="cls-1" d="M148.18,111.64a4.41,4.41,0,0,0-4.39,4.44,4.73,4.73,0,0,0,.09.93,9.55,9.55,0,0,0,8.59,0,4.73,4.73,0,0,0,.09-.93A4.41,4.41,0,0,0,148.18,111.64Z" transform="translate(-143.54 -94.28)"/><path class="cls-1" d="M148.18,113.19A2.87,2.87,0,0,1,151,116a8.06,8.06,0,0,1-2.85.51" transform="translate(-143.54 -94.28)"/><ellipse class="cls-1" cx="4.64" cy="13.98" rx="2.32" ry="2.35"/><path class="cls-1" d="M162.9,111.64a4.42,4.42,0,0,0-4.39,4.44,4.73,4.73,0,0,0,.1.93,9.53,9.53,0,0,0,8.58,0,4.08,4.08,0,0,0,.1-.93A4.42,4.42,0,0,0,162.9,111.64Z" transform="translate(-143.54 -94.28)"/><path class="cls-1" d="M162.9,113.19a2.88,2.88,0,0,1,2.86,2.78,8.15,8.15,0,0,1-2.86.51" transform="translate(-143.54 -94.28)"/><ellipse class="cls-1" cx="19.36" cy="13.98" rx="2.32" ry="2.35"/><path class="cls-1" d="M155.54,100.25a4.43,4.43,0,0,0-4.39,4.45,4.08,4.08,0,0,0,.1.93,9.53,9.53,0,0,0,8.58,0,4.73,4.73,0,0,0,.1-.93A4.43,4.43,0,0,0,155.54,100.25Z" transform="translate(-143.54 -94.28)"/><path class="cls-1" d="M155.54,101.8a2.89,2.89,0,0,1,2.86,2.78,7.94,7.94,0,0,1-2.86.52" transform="translate(-143.54 -94.28)"/><ellipse class="cls-1" cx="12" cy="2.6" rx="2.32" ry="2.35"/><polyline class="cls-1" points="9.9 18.65 12.16 16.36 14.42 18.65"/><line class="cls-1" x1="12.16" y1="16.36" x2="12.16" y2="13.45"/></svg>