<svg id="Слой_1" data-name="Слой 1" xmlns="http://www.w3.org/2000/svg" viewBox="0 0 24 24"><defs><style>.cls-1{fill:none;stroke:#6698d0;stroke-miterlimit:10;stroke-width:0.5px;}</style></defs><title>icon-3</title><path class="cls-1" d="M148,104.45a4.42,4.42,0,0,0-4.39,4.45,4.71,4.71,0,0,0,.1.92,9.53,9.53,0,0,0,8.58,0,4.05,4.05,0,0,0,.1-.92A4.42,4.42,0,0,0,148,104.45Z" transform="translate(-143.4 -87.09)"/><path class="cls-1" d="M148,106a2.88,2.88,0,0,1,2.86,2.78,8.15,8.15,0,0,1-2.86.51" transform="translate(-143.4 -87.09)"/><ellipse class="cls-1" cx="4.64" cy="13.98" rx="2.32" ry="2.35"/><path class="cls-1" d="M162.77,104.45a4.42,4.42,0,0,0-4.39,4.45,4.7,4.7,0,0,0,.09.92,9.55,9.55,0,0,0,8.59,0,4.7,4.7,0,0,0,.09-.92A4.41,4.41,0,0,0,162.77,104.45Z" transform="translate(-143.4 -87.09)"/><path class="cls-1" d="M162.77,106a2.87,2.87,0,0,1,2.85,2.78,8.06,8.06,0,0,1-2.85.51" transform="translate(-143.4 -87.09)"/><ellipse class="cls-1" cx="19.36" cy="13.98" rx="2.32" ry="2.35"/><path class="cls-1" d="M155.4,93.07A4.41,4.41,0,0,0,151,97.51a4.73,4.73,0,0,0,.09.93,9.55,9.55,0,0,0,8.59,0,4.73,4.73,0,0,0,.09-.93A4.41,4.41,0,0,0,155.4,93.07Z" transform="translate(-143.4 -87.09)"/><path class="cls-1" d="M155.4,94.62a2.88,2.88,0,0,1,2.86,2.78,8.11,8.11,0,0,1-2.86.51" transform="translate(-143.4 -87.09)"/><ellipse class="cls-1" cx="12" cy="2.6" rx="2.32" ry="2.35"/><polyline class="cls-1" points="9.9 18.65 12.16 16.36 14.42 18.65"/><line class="cls-1" x1="12.16" y1="16.36" x2="12.16" y2="13.45"/></svg>