<svg id="Слой_1" data-name="Слой 1" xmlns="http://www.w3.org/2000/svg" viewBox="0 0 306.54 74.22"><defs><style>.cls-1{fill:#32366d}</style></defs><path class="cls-1" d="M230.94 108.73h1l-.94 3.07h5.88l.94-3.07h1l-2.21 7.22h-1l1-3.18h-5.87l-1 3.18h-1zM246.33 115.9h-1l1.92-6.28-7.72 6.29H238l2.21-7.23h1l-1.95 6.32 7.79-6.36h1.49zM247.92 115.9l2.21-7.23h1l-.89 2.93h1l5-2.95H258l-5.83 3.42 3.92 3.8h-1.67l-3.42-3.3h-1l-1 3.32zM261.28 116a9.34 9.34 0 0 1-2.89-.28 1 1 0 0 1-.73-1.1 11 11 0 0 1 .54-2.31 14 14 0 0 1 .86-2.31 2.48 2.48 0 0 1 1.43-1.12 11.12 11.12 0 0 1 3.06-.3 9.23 9.23 0 0 1 2.88.28 1.07 1.07 0 0 1 .74 1.11 11.44 11.44 0 0 1-.55 2.32 13.64 13.64 0 0 1-.85 2.3 2.4 2.4 0 0 1-1.42 1.11 11.1 11.1 0 0 1-3.07.3zm.3-1a6.39 6.39 0 0 0 2.88-.38 4.9 4.9 0 0 0 1.14-2.36c.41-1.34.52-2.13.32-2.38s-1.09-.37-2.67-.36a6.41 6.41 0 0 0-2.89.38 5.15 5.15 0 0 0-1.14 2.37c-.4 1.33-.51 2.12-.3 2.36s1.08.37 2.66.37zM266.93 114.87h.4c.23 0 .48-.2.73-.61a11.94 11.94 0 0 0 1-2.46v-.17l.05-.15v-.11l.12-.38a3.58 3.58 0 0 1 .11-.35l.61-2h7l-2.21 7.23h-1l1.91-6.25h-4.93l-.41 1.36-.15.49c-.21.67-.41 1.25-.6 1.75a9.4 9.4 0 0 1-.88 1.82c-.36.56-.71.84-1.06.84h-1zM283.29 108.57l1.38 7.22h-1.15l-.32-1.6h-4.86l-1.29 1.61h-1.15l5.8-7.23zm-.23 4.65l-.69-3.78h-.26l-3 3.79zM295.57 108.54l-2.2 7.22h-1l.8-2.61h-4.79a1.63 1.63 0 0 0-.85.24 1.06 1.06 0 0 0-.5.6l-.55 1.78h-1L286 114a1.91 1.91 0 0 1 .56-.88 2.38 2.38 0 0 1 .71-.42.84.84 0 0 1-.45-.5 2.56 2.56 0 0 1 .14-1.35 3.88 3.88 0 0 1 1-1.67 2.15 2.15 0 0 1 1.53-.63zm-2.13 3.64l.81-2.67h-4.69a1.69 1.69 0 0 0-.87.21 1.94 1.94 0 0 0-.73 1.13c-.17.55-.16.92 0 1.12a1.06 1.06 0 0 0 .76.21zM223.93 124.43a2.37 2.37 0 0 1-.75.59.9.9 0 0 1 .38.58 2.36 2.36 0 0 1-.12 1 3 3 0 0 1-.91 1.51 3 3 0 0 1-1.49.55 18.85 18.85 0 0 1-2.12.08c-1.65 0-2.66-.14-3-.44s-.36-1 0-2.16h1c-.24.78-.22 1.25.05 1.43a6.44 6.44 0 0 0 2.25.21 8.17 8.17 0 0 0 2.33-.23 1.34 1.34 0 0 0 .88-.94q.21-.68-.15-.93a1.71 1.71 0 0 0-1-.21h-3.14l.29-1h3.14a2.6 2.6 0 0 0 1.15-.19 1.41 1.41 0 0 0 .71-.91q.21-.72-.3-.9a7.83 7.83 0 0 0-2.22-.19 7.44 7.44 0 0 0-2.44.24c-.35.16-.64.63-.87 1.4h-1a3.61 3.61 0 0 1 1.33-2.17 7.86 7.86 0 0 1 3.3-.45 14.57 14.57 0 0 1 1.77.07 2.07 2.07 0 0 1 1.3.54 1.42 1.42 0 0 1 .16 1.45 3.29 3.29 0 0 1-.53 1.07zM232.44 128.58h-1l1.92-6.28-7.73 6.3h-1.54l2.22-7.22h1l-1.94 6.34 7.8-6.35h1.48zM238.11 121.35l1.71 5.93 5.35-6H247l-2.21 7.23h-1l1.92-6.25h-.2l-5.73 6.26h-.64l-1.9-6.25H237l-1.91 6.26h-1l2.21-7.22zM254.9 128.52h-1l1.92-6.27-7.73 6.29h-1.53l2.21-7.22h1l-1.94 6.33 7.8-6.35h1.49zM256.32 128.51l2.21-7.22h5.57a1.32 1.32 0 0 1 1.24.57 2.23 2.23 0 0 1 0 1.74 3.49 3.49 0 0 1-1.06 1.73 2.47 2.47 0 0 1-1.62.57h-4.51l-.8 2.61zm2.12-3.58h4.5a1.13 1.13 0 0 0 .8-.32 2.15 2.15 0 0 0 .57-1 1.43 1.43 0 0 0 .05-1 .6.6 0 0 0-.61-.33h-4.5zM267.28 121.26h6.53l-.3 1H268l-.65 2.11h5.33l-.3 1h-5.32l-.68 2.2h5.52l-.3 1h-6.53zM281.08 126.33a3 3 0 0 1-1 1.59 2.91 2.91 0 0 1-1.78.53h-5.47l2.21-7.22h5.23a1.7 1.7 0 0 1 1.45.52 1.68 1.68 0 0 1 .09 1.52 2 2 0 0 1-1.2 1.4.94.94 0 0 1 .54.53 1.7 1.7 0 0 1-.07 1.13zm-6.29-1.09l-.69 2.25h4.45a1.56 1.56 0 0 0 1-.31 1.65 1.65 0 0 0 .54-.82.93.93 0 0 0-.05-.81.84.84 0 0 0-.77-.32zm6-2a1 1 0 0 0 0-.76c-.13-.21-.4-.31-.82-.31h-4.21l-.63 2.05h4.21a1.61 1.61 0 0 0 1-.24 1.34 1.34 0 0 0 .41-.71zM288.82 121.2l1.38 7.21h-1.15l-.31-1.6h-4.87l-1.29 1.61h-1.15l5.81-7.23zm-.23 4.65l-.69-3.78h-.26l-3 3.79z" transform="translate(-3.05 -62.25)"/><path class="cls-1" d="M308.31 64.88a6.52 6.52 0 0 0-5.24-2.63l-22.11.06a19.16 19.16 0 0 0-6.85 1.19 6.47 6.47 0 0 0-3.59-1.08h-12.44a6.51 6.51 0 0 0-4.65 2l-2.46 2.51a6.32 6.32 0 0 0-.94-1.8 6.52 6.52 0 0 0-5.24-2.64h-7.6a6.33 6.33 0 0 0-1.45.18 7 7 0 0 0-1.3-.14h-13a6.55 6.55 0 0 0-5.21 2.61l-2.45 3.28v-.21a6.52 6.52 0 0 0-6.46-5.64h-13.65a7.77 7.77 0 0 0-1 .08 6.53 6.53 0 0 0-1.53-.18l-26.61.08a6.38 6.38 0 0 0-1.08.1 5.36 5.36 0 0 0-1.06-.09l-28.51.08a6.53 6.53 0 0 0-6.22 4.62c-.84 2.74-1.56 5-2.17 6.88l-1-5.9a6.52 6.52 0 0 0-6.49-5.37h-13.07a6.55 6.55 0 0 0-5.14 2.53l-1.42 1.84A6.57 6.57 0 0 0 92.21 63H81.74a6.48 6.48 0 0 0-4.07 1.44L75 66.57a7.37 7.37 0 0 0-.57-.92A6.55 6.55 0 0 0 69.18 63h-7.6a6.53 6.53 0 0 0-6.22 4.61L55 68.93l-.07-.38a6.52 6.52 0 0 0-6.43-5.47H35.44a6.49 6.49 0 0 0-5.14 2.53L10 91.77a6.5 6.5 0 0 0-.69 6.88 6.41 6.41 0 0 0 1.37 1.84l-1 3.16a1.41 1.41 0 0 0-.06.22 45.41 45.41 0 0 0-4.5 10.77C2.85 122.21 1.94 128.06 5 132c2.57 3.27 7.2 4.5 17 4.5h.36c6.28 0 10.68-.47 13.85-1.46a6.51 6.51 0 0 0 3.53 1h7.61a6.53 6.53 0 0 0 6.22-4.61l.39-1.28h4a6.5 6.5 0 0 0 6.53 5.85h7.6a6.52 6.52 0 0 0 3.74-1.21 12.67 12.67 0 0 0 1.91.68c1.5.39 4.24.84 12.13.84h.67c7.46 0 11.84-.64 14.64-1.46a6.5 6.5 0 0 0 3.52 1h7.6a6.51 6.51 0 0 0 6.22-4.61l.4-1.3 19.47-.07a6.5 6.5 0 0 0 6.48 5.89h7.6a6.48 6.48 0 0 0 5-2.36 6.52 6.52 0 0 0 5 2.33h8.88a6.52 6.52 0 0 0 5-2.33l1.75-2.07h6.87a6.52 6.52 0 0 0 6.15 4.36H204a6.51 6.51 0 0 0 6.42-7.57l-4.25-26a.8.8 0 0 0 0-.15h3.29a6.49 6.49 0 0 0 4.66-2 6.5 6.5 0 0 0 4.65 2h7.6a6.09 6.09 0 0 0 1.54-.21 6.26 6.26 0 0 0 1.23.13h12.44a6.48 6.48 0 0 0 4.64-2l2.46-2.51a6.73 6.73 0 0 0 .94 1.8 6.52 6.52 0 0 0 5.24 2.63h7.6a6.37 6.37 0 0 0 1.39-.17 6.74 6.74 0 0 0 1.43.16h7.6a6.53 6.53 0 0 0 6.22-4.61l.9-2.99h1a6.53 6.53 0 0 0 6.48 7.28h7.6a6.52 6.52 0 0 0 6.22-4.61l8-26.16a6.57 6.57 0 0 0-.99-5.83zm-141 51.41h.92l-.33.42h-.72zm-79.9-34.86l-1.9 2.46-.46-.64z" transform="translate(-3.05 -62.25)"/><path d="M306.44 66.27a4.21 4.21 0 0 0-3.37-1.69l-22.12.06a15.59 15.59 0 0 0-7.25 1.59 4.22 4.22 0 0 0-3.19-1.48h-12.44a4.14 4.14 0 0 0-3 1.26l-7.3 7.46 1-3.26a4.2 4.2 0 0 0-4-5.43h-7.6a4.32 4.32 0 0 0-1.44.26 4.2 4.2 0 0 0-1.32-.22h-13a4.2 4.2 0 0 0-3.34 1.68l-5.85 7.82-.81-5.84a4.19 4.19 0 0 0-4.16-3.48H193.6a3.79 3.79 0 0 0-1.07.16 4.17 4.17 0 0 0-1.44-.26l-26.6.08a4.11 4.11 0 0 0-1.06.15 4.3 4.3 0 0 0-1.07-.14l-28.5.08a4.2 4.2 0 0 0-4 3c-2.24 7.32-4 12.33-5.06 14.88-.08.17-.15.32-.21.47l-2.4-14.68A4.19 4.19 0 0 0 118 65.2h-13.06a4.19 4.19 0 0 0-3.3 1.63l-16.2 20.96-3.59-5 12.94-10a4.19 4.19 0 0 0-2.56-7.51H81.76a4.19 4.19 0 0 0-2.61.92l-6 4.86.1-.32a4.21 4.21 0 0 0-.7-3.74 4.06 4.06 0 0 0-3.38-1.69h-7.61a4.19 4.19 0 0 0-4 3l-3.31 10.85-1.66-10.23a4.21 4.21 0 0 0-4.14-3.52H35.39a4.16 4.16 0 0 0-3.3 1.63L11.85 93.2a4.2 4.2 0 0 0 1.56 6.37L12 104.33a4.31 4.31 0 0 0-.11.49 41.17 41.17 0 0 0-4.44 10.5c-2.52 8.24-2.67 12.51-.55 15.21s6.31 3.61 15.2 3.61h.36c8.17 0 12.09-.84 14.31-1.75a4.22 4.22 0 0 0 3.07 1.33h7.6a4.2 4.2 0 0 0 4-3l.89-2.92h8.33l-.14.45a4.2 4.2 0 0 0 4 5.42h7.61a4.2 4.2 0 0 0 3.37-1.73 9.64 9.64 0 0 0 2.87 1.28c1.37.35 3.91.76 11.52.76h.68c8.5 0 12.72-.82 15.11-1.75a4.21 4.21 0 0 0 3.06 1.33h7.61a4.18 4.18 0 0 0 4-3l.9-3 23.81-.07-.14.47a4.2 4.2 0 0 0 4 5.42h7.6a4.18 4.18 0 0 0 4-3l.91-3h1.24a4.18 4.18 0 0 0 3.83 5.89h8.88a4.19 4.19 0 0 0 3.2-1.5l2.44-2.9h9.77l.26 1.12a4.19 4.19 0 0 0 4.08 3.25h8.88a4.19 4.19 0 0 0 4.12-4.87l-4.25-26.05a3.92 3.92 0 0 0-.43-1.26l-.17-1.58h6.15a4.19 4.19 0 0 0 3.33-1.66l1.8-2.37a4.18 4.18 0 0 0 4.19 4h7.6a4.08 4.08 0 0 0 1.49-.29 4.3 4.3 0 0 0 1.29.21h12.44a4.18 4.18 0 0 0 3-1.26l7.29-7.45-1 3.25a4.19 4.19 0 0 0 4 5.42h7.61a4.19 4.19 0 0 0 1.41-.25 4.14 4.14 0 0 0 1.41.24h7.6a4.19 4.19 0 0 0 4-3l1.36-4.35H284l-.57 1.87a4.2 4.2 0 0 0 4 5.42h7.61a4.16 4.16 0 0 0 4-3l8-26.16a4.21 4.21 0 0 0-.6-3.83z" transform="translate(-3.05 -62.25)" fill="#fff"/><path class="cls-1" d="M35.38 69.64h13.07l4.25 26.01h-8.89l-1-4.38H27.74l-3.69 4.39h-8.88zm5.32 5.86h-1.17l-6.89 9.07h9.37zM61.58 69.56h7.6l-2.8 9.14h4l11.4-9.16h10.47L76.09 81.93l9.74 13.62h-11l-6.54-10.13h-4L61.2 95.63h-7.61z" transform="translate(-3.05 -62.25)"/><path class="cls-1" d="M104.94 69.43H118l4.25 26.05h-8.88l-1-4.38H97.3l-3.69 4.39h-8.88zm5.32 5.86h-1.17l-6.89 9.07h9.37zM125.77 88.68q1 0 2.82-4.07t5.23-15.33l28.51-.09-5.94 19.4h1.9l-2.9 9.46h-7.6l.33-1.08a1.54 1.54 0 0 0 0-1.24c-.16-.25-.55-.38-1.14-.38H131.6a2.07 2.07 0 0 0-2.14 1.65l-.33 1.09h-7.6l2.9-9.46zm23-.07L152.66 76h-13.31a81.6 81.6 0 0 1-3.08 8.65q-1.46 3.38-2.31 4zM156.46 95.34l8-26.16 26.61-.08-1.94 6.33h-19L169 79.14l18.14-.06-1.92 6.29h-18.14L166 89l19-.06-1.93 6.32zM207.25 69.17l2 14.63a9.94 9.94 0 0 1-.26 1.7c-.19 1-.23 1.44-.11 1.44s.26-.29.52-.86l1-2.29 11-14.67h13l-8 26.13h-7.6l5.61-18.33a6.19 6.19 0 0 1 .53-1.17 7 7 0 0 0 .43-.85c.06-.19 0-.29-.12-.29s-.25.14-.47.42-.42.55-.59.79l-14.74 19.44h-6.22l-3.52-19.41q-.06-.48-.12-.84c-.05-.24-.11-.37-.2-.37a.31.31 0 0 0-.29.26s0 .43-.13 1.21a4 4 0 0 1-.15.84l-5.61 18.34h-7.6l8-26.12zM237.15 69h7.6l-5.5 18q-.58 1-1.17 2c-.09.25-.18.49-.25.74.16 0 .36-.16.61-.48l.72-1L258.06 69h12.44l-8 26.09h-7.6l5.51-18s.41-.7 1.2-2c.08-.25.17-.49.26-.73-.16 0-.36.16-.61.49l-.72.93-18.93 19.31h-12.44zM303.07 68.77l-8 26.16h-7.6l2.24-7.3h-12a3 3 0 0 0-2.13.81 4.29 4.29 0 0 0-1.16 1.83L273 95h-7.6l1.78-5.85a8.45 8.45 0 0 1 1.78-3.43 9.88 9.88 0 0 1 3.27-1.87 3.16 3.16 0 0 1-1.91-2.41 12.09 12.09 0 0 1 .75-5q1.38-4.52 4.16-6.27a10.66 10.66 0 0 1 5.77-1.33zm-9.67 6.78h-12.2a3 3 0 0 0-1.95.58 4.26 4.26 0 0 0-1.19 2.11 2.65 2.65 0 0 0-.07 2.06c.24.39.77.59 1.58.58h12.2zM30.61 103.09q10.57 0 12.46 1.83 1.65 1.59-.47 8.54h-7.64c.46-1.51.38-2.47-.26-2.88s-2.84-.76-6.15-.75q-5.57 0-6.81.93c-.84.62-1.75 2.54-2.74 5.78s-1.25 5.13-.79 5.73 2.54.91 6.25.9c3.37 0 5.53-.23 6.51-.66a4.45 4.45 0 0 0 2.18-3h7.6q-2.13 7-4.69 8.55Q33 129.92 22.4 130t-12.25-2q-1.61-2 1.26-11.4T17 105.25q3-2.13 13.61-2.16zM47.79 103.37l32.31-.1-8 26.16h-7.6l5.94-19.41-17.1.06-5.94 19.4h-7.6zM111 116.29q-2.92 9.52-5.67 11.4-3 2-14.78 2.05-8.64 0-11.14-.62c-2.08-.55-3.14-1.77-3.16-3.64q0-2.16 2.09-9.1c2-6.35 3.82-10.16 5.63-11.4q3-2.06 14.8-2.09t13.51 2q1.63 1.86-1.28 11.4zm-25.06.07q-1.53 5-.69 5.82c.56.55 3 .82 7.37.8s7-.29 7.9-.84 1.85-2.49 2.87-5.83 1.27-5.32.71-5.86-3-.82-7.37-.8-7 .29-7.9.84-1.83 2.51-2.9 5.87zM116.73 103.16h18.59c4.05 0 6.56.5 7.53 1.55q1.83 1.94-.12 8.3t-4.92 8.28q-2.46 1.62-8.54 1.63h-11l-2 6.39h-7.6zm3.62 13h11a3.82 3.82 0 0 0 2.23-.64 4.53 4.53 0 0 0 1.59-2.5 2.79 2.79 0 0 0-.06-2.49 2.26 2.26 0 0 0-1.85-.62h-11zM143.93 109.84l2.07-6.76 29.4-.09-2.07 6.76h-10.88l-5.94 19.4h-7.6l5.94-19.4zM186.71 103h13.07l4.22 26h-8.88l-1-4.38h-15.07l-3.69 4.39h-8.88zm5.32 5.86h-1.17L184 118h9.37z" transform="translate(-3.05 -62.25)"/></svg>